<?xml version="1.0" encoding="utf-8"?>
<!-- Generator: Adobe Illustrator 19.0.0, SVG Export Plug-In . SVG Version: 6.00 Build 0)  -->
<svg version="1.1" id="Layer_1" xmlns="http://www.w3.org/2000/svg" xmlns:xlink="http://www.w3.org/1999/xlink" x="0px" y="0px"
	 viewBox="0 0 960 560" style="enable-background:new 0 0 960 560;" xml:space="preserve">
<style type="text/css">
	.st0{fill:#FFFFFF;}
</style>
<g id="XMLID_22_">
	<path id="XMLID_58_" class="st0" d="M175.3,233.4c0-2.9,0.9-5.3,2.7-7.2c1.8-1.9,4.4-2.9,7.9-2.9c3.4,0,6,1,7.9,2.9
		c1.9,1.9,2.8,4.3,2.8,7.2c0,2.8-0.9,5.2-2.8,7.1s-4.5,2.8-7.9,2.8c-3.4,0-6-0.9-7.9-2.8C176.2,238.6,175.3,236.2,175.3,233.4z
		 M195.3,338.8h-18.8v-83.7h18.8V338.8z"/>
	<path id="XMLID_56_" class="st0" d="M250.8,316.1c0-3.4-1.4-5.9-4.1-7.7c-2.8-1.8-7.3-3.3-13.7-4.6c-6.4-1.3-11.7-3-16-5.1
		c-9.4-4.5-14.1-11.1-14.1-19.7c0-7.2,3-13.3,9.1-18.1c6.1-4.8,13.8-7.3,23.2-7.3c10,0,18.1,2.5,24.3,7.4c6.2,5,9.2,11.4,9.2,19.3
		h-18.8c0-3.6-1.3-6.6-4-9c-2.7-2.4-6.2-3.6-10.7-3.6c-4.1,0-7.5,1-10.1,2.9c-2.6,1.9-3.9,4.5-3.9,7.7c0,2.9,1.2,5.1,3.6,6.7
		c2.4,1.6,7.3,3.2,14.7,4.8c7.4,1.6,13.2,3.6,17.4,5.8c4.2,2.2,7.3,4.9,9.4,8.1c2,3.1,3.1,7,3.1,11.5c0,7.5-3.1,13.6-9.4,18.3
		c-6.2,4.7-14.4,7-24.5,7c-6.9,0-13-1.2-18.3-3.7c-5.4-2.5-9.5-5.9-12.5-10.2c-3-4.3-4.5-9-4.5-14h18.3c0.3,4.4,1.9,7.9,5,10.3
		c3.1,2.4,7.2,3.6,12.3,3.6c5,0,8.7-0.9,11.3-2.8C249.5,321.6,250.8,319.1,250.8,316.1z"/>
	<path id="XMLID_53_" class="st0" d="M323.8,338.8c-0.8-1.6-1.5-4.2-2.2-7.8c-6,6.2-13.3,9.4-22,9.4c-8.4,0-15.3-2.4-20.6-7.2
		c-5.3-4.8-8-10.7-8-17.8c0-8.9,3.3-15.8,9.9-20.5c6.6-4.8,16.1-7.2,28.4-7.2H321v-5.5c0-4.3-1.2-7.8-3.6-10.4
		c-2.4-2.6-6.1-3.9-11.1-3.9c-4.3,0-7.8,1.1-10.5,3.2c-2.7,2.1-4.1,4.9-4.1,8.2h-18.8c0-4.6,1.5-8.9,4.6-12.9c3-4,7.2-7.1,12.4-9.4
		c5.2-2.3,11.1-3.4,17.5-3.4c9.8,0,17.6,2.5,23.4,7.4c5.8,4.9,8.8,11.9,9,20.8v37.8c0,7.5,1.1,13.5,3.2,18v1.3H323.8z M303.1,325.3
		c3.7,0,7.2-0.9,10.5-2.7c3.3-1.8,5.7-4.2,7.4-7.3v-15.8h-10.1c-7,0-12.2,1.2-15.7,3.6c-3.5,2.4-5.3,5.9-5.3,10.3
		c0,3.6,1.2,6.5,3.6,8.6S299.1,325.3,303.1,325.3z"/>
	<path id="XMLID_51_" class="st0" d="M374.8,302.9l-8.4,8.6v27.3h-18.8V220h18.8v68.6l5.9-7.4l23.1-26.1h22.6L387,290l34.4,48.8
		h-21.7L374.8,302.9z"/>
	<path id="XMLID_45_" class="st0" d="M409.6,296.2c0-8.2,1.6-15.6,4.9-22.2s7.8-11.6,13.7-15.2c5.9-3.5,12.6-5.3,20.3-5.3
		c11.3,0,20.5,3.6,27.5,10.9c7,7.3,10.8,16.9,11.4,28.9l0.1,4.4c0,8.3-1.6,15.6-4.8,22.1s-7.7,11.5-13.6,15.1
		c-5.9,3.6-12.7,5.3-20.5,5.3c-11.8,0-21.3-3.9-28.4-11.8c-7.1-7.9-10.6-18.4-10.6-31.5V296.2z M428.4,297.8
		c0,8.6,1.8,15.4,5.3,20.2c3.6,4.9,8.5,7.3,14.9,7.3s11.3-2.5,14.8-7.4c3.5-5,5.3-12.2,5.3-21.7c0-8.5-1.8-15.2-5.5-20.1
		c-3.6-5-8.6-7.4-14.8-7.4c-6.1,0-11,2.4-14.6,7.3C430.2,280.9,428.4,288.1,428.4,297.8z"/>
	<path id="XMLID_27_" class="st0" d="M565,312.9l13.3-57.8h18.3l-22.8,83.7h-15.5l-18-57.5l-17.6,57.5h-15.5l-22.9-83.7h18.3
		l13.5,57.2l17.2-57.2h14.2L565,312.9z"/>
	<g id="XMLID_25_">
		<polygon id="XMLID_26_" class="st0" points="672.7,254 659.4,311.8 642,254 627.8,254 610.6,311.8 599.5,265.1 590.5,298.2 
			601.6,339 617.1,339 634.8,281.5 652.7,339 668.2,339 691,254 		"/>
	</g>
	<g id="XMLID_23_">
		<polygon id="XMLID_24_" class="st0" points="766.7,254 753.4,311.8 735.9,254 721.8,254 704.6,311.7 693.4,264.7 684.4,297.8 
			695.6,339 711.1,339 728.7,281.5 746.7,339 762.2,339 785,254 		"/>
	</g>
</g>
</svg>
